<svg fill="none" height="92" viewBox="0 0 92 92" width="92" xmlns="http://www.w3.org/2000/svg"><path d="m71.2471 33.1872c-.5978-2.2474-2.3662-4.0204-4.6162-4.628-4.0683-1.0904-20.3913-1.0904-20.3913-1.0904s-16.3146 0-20.3912 1.0904c-2.2417.5993-4.0101 2.3723-4.6162 4.628-1.0877 4.0787-1.0877 12.5939-1.0877 12.5939s0 8.5153 1.0877 12.5939c.5978 2.2474 2.3662 4.0204 4.6162 4.6281 4.0766 1.0904 20.3912 1.0904 20.3912 1.0904s16.323 0 20.3913-1.0904c2.2417-.5994 4.0101-2.3723 4.6162-4.6281 1.0877-4.0786 1.0877-12.5939 1.0877-12.5939s0-8.5152-1.0877-12.5939z" fill="#fff"/><path d="m41.0256 53.6305 13.5582-7.8494-13.5582-7.8493z" fill="#000"/></svg>